<svg xmlns="http://www.w3.org/2000/svg" viewBox="0 0 1080 296"><defs><style>.cls-1{fill:#231f20;}</style></defs><g id="Layer_2" data-name="Layer 2"><g id="Layer_1-2" data-name="Layer 1"><path class="cls-1" d="M156.89,131.52C151,149,145.93,168,140,186.17h-1.81C132.24,168,127.06,149,121.12,131.52L73.06,0H0V296H60.07V187.37c0-28.85-5.4-71.92-8.56-100.56h1.82L77,156.86l42,113.39h37.17L198,156.86l24.3-70.05h1.82c-3.15,28.64-8.56,71.71-8.56,100.56V296h61V0H203.45Z"/><path class="cls-1" d="M401.45,0l-93,296h68.46L415.8,146.09c8.23-29.6,16.14-64.22,23.3-95.47h1.82c7.91,30.88,15.82,65.87,24.06,95.47L503.73,296H574.6l-93-296Z"/><path class="cls-1" d="M824.12,92.17C824.12,21.8,772.63,0,709.8,0H603.12V296h67V189.48h36.83L763.47,296H838.4l-67-118.38C803,163.34,824.12,135.7,824.12,92.17Zm-154-39h34.26c35.23,0,54.15,9.77,54.15,39,0,29.11-18.92,44.18-54.15,44.18H670.08Z"/><polygon class="cls-1" points="849.97 0 849.97 56.12 931.5 56.12 931.5 296 998.47 296 998.47 56.12 1080 56.12 1080 0 849.97 0"/></g></g></svg>